<?xml version="1.0" standalone="no"?>
<!DOCTYPE svg PUBLIC "-//W3C//DTD SVG 20010904//EN"
 "http://www.w3.org/TR/2001/REC-SVG-20010904/DTD/svg10.dtd">
<svg version="1.0" xmlns="http://www.w3.org/2000/svg"
 width="1024.000000pt" height="1024.000000pt" viewBox="0 0 1024.000000 1024.000000"
 preserveAspectRatio="xMidYMid meet">

<g transform="translate(0.000000,1024.000000) scale(0.100000,-0.100000)"
fill="#000000" stroke="none">
<path d="M7757 7689 c-208 -51 -375 -185 -470 -376 l-41 -83 -88 0 c-144 0
-239 -29 -334 -100 -77 -58 -147 -171 -168 -272 l-6 -28 -1519 0 -1519 0 -6
34 c-9 45 -40 83 -74 90 -15 3 -87 -5 -160 -17 l-132 -23 -27 41 c-14 22 -56
71 -92 108 l-65 68 59 118 c61 125 70 168 39 202 -25 28 -341 189 -370 189
-38 0 -75 -46 -140 -173 -31 -62 -57 -113 -58 -114 -1 -1 -66 -4 -144 -6
l-141 -4 -12 36 c-23 72 -88 201 -113 226 -17 17 -36 25 -58 25 -34 0 -336
-136 -370 -167 -10 -8 -21 -32 -24 -51 -6 -30 2 -53 56 -159 l62 -124 -64 -67
c-52 -54 -84 -94 -113 -140 -1 -1 -64 7 -140 18 -195 29 -207 23 -239 -135 -9
-44 -26 -121 -38 -171 -18 -79 -20 -96 -8 -123 17 -41 30 -47 174 -85 119 -31
121 -32 124 -61 4 -34 37 -181 47 -207 5 -12 -20 -39 -103 -107 -61 -50 -113
-98 -116 -107 -10 -25 -7 -73 5 -97 32 -61 213 -286 240 -297 43 -18 72 -6
202 81 l119 80 61 -39 c54 -35 121 -67 179 -86 16 -5 18 -21 18 -141 0 -149 9
-182 55 -203 32 -15 362 -17 399 -2 45 17 56 49 69 201 l12 142 53 18 c29 10
79 34 111 54 32 19 63 35 69 35 5 0 45 -29 88 -65 l79 -66 5 -1052 5 -1052 27
-51 c40 -76 116 -140 197 -164 65 -20 87 -20 1961 -18 l1895 3 60 28 c73 34
146 109 172 175 17 45 18 113 21 1344 l2 1297 668 3 c630 3 670 4 712 22 121
51 220 147 260 253 30 77 33 205 7 280 -25 71 -92 161 -156 207 -57 42 -168
85 -218 86 -32 0 -33 1 -33 45 0 63 -27 188 -55 258 -145 355 -532 556 -898
466z m-5180 -806 c68 -19 160 -79 206 -135 189 -230 117 -565 -148 -690 -51
-23 -84 -31 -148 -35 -215 -14 -382 97 -457 305 -19 53 -22 76 -18 155 4 82
10 104 42 170 98 203 300 293 523 230z m1370 -425 c44 -41 17 -118 -41 -118
-28 0 -66 42 -66 72 0 24 43 68 66 68 10 0 28 -10 41 -22z m390 0 c44 -41 17
-118 -42 -118 -58 0 -87 79 -43 120 28 26 56 25 85 -2z m3013 -1666 c0 -1390
4 -1315 -67 -1384 -76 -74 95 -68 -1981 -68 -1371 0 -1878 3 -1903 11 -51 18
-97 55 -122 102 l-22 42 -3 1010 -2 1009 30 24 c17 13 63 69 103 123 165 228
166 235 37 341 l-45 38 1988 0 1987 0 0 -1248z"/>
<path d="M3876 5524 c-9 -8 -16 -29 -16 -46 0 -27 30 -61 230 -263 127 -127
230 -235 230 -240 0 -5 -103 -113 -230 -240 -199 -200 -230 -235 -230 -261 0
-38 27 -64 65 -64 25 0 68 39 276 246 136 136 255 262 265 280 14 25 16 39 9
58 -6 14 -126 142 -267 285 -221 224 -262 261 -287 261 -16 0 -37 -7 -45 -16z"/>
<path d="M4847 5402 c-23 -25 -21 -68 3 -92 20 -20 33 -20 753 -20 698 0 735
1 750 18 22 25 21 75 -1 95 -17 16 -84 17 -754 17 -699 0 -736 -1 -751 -18z"/>
<path d="M4850 4970 c-11 -11 -20 -31 -20 -45 0 -14 9 -34 20 -45 19 -19 33
-20 443 -20 232 0 427 4 433 8 15 10 34 47 34 66 0 9 -9 25 -20 36 -19 19 -33
20 -445 20 -412 0 -426 -1 -445 -20z"/>
<path d="M5980 4970 c-11 -11 -20 -31 -20 -45 0 -14 9 -34 20 -45 19 -19 33
-20 385 -20 352 0 366 1 385 20 11 11 20 31 20 45 0 14 -9 34 -20 45 -19 19
-33 20 -385 20 -352 0 -366 -1 -385 -20z"/>
<path d="M4852 4554 c-15 -10 -22 -25 -22 -49 0 -68 -30 -65 701 -65 623 0
657 1 672 18 25 27 22 78 -5 96 -20 14 -100 16 -673 16 -573 0 -653 -2 -673
-16z"/>
<path d="M3892 4018 c-29 -15 -39 -55 -21 -87 l15 -26 384 -3 c383 -2 385 -2
403 19 22 28 22 50 -4 83 l-20 26 -367 -1 c-244 0 -375 -4 -390 -11z"/>
<path d="M2429 4998 c-20 -16 -47 -67 -69 -132 l-17 -51 -66 -3 -66 -3 -31 68
c-39 86 -64 113 -105 113 -40 0 -288 -122 -309 -152 -29 -41 -18 -82 46 -176
l29 -43 -28 -44 c-32 -51 -26 -49 -113 -30 -147 32 -162 22 -196 -135 -40
-178 -41 -201 -12 -235 20 -23 40 -31 109 -45 l84 -16 19 -53 19 -53 -66 -61
c-107 -101 -104 -121 47 -289 126 -140 140 -142 262 -26 l41 40 52 -18 51 -19
1 -50 c1 -102 14 -157 43 -182 25 -22 35 -23 159 -23 152 0 197 10 228 48 20
25 21 35 16 127 l-6 100 49 24 49 24 67 -51 c52 -41 74 -52 103 -52 47 0 54 6
138 120 85 115 93 130 93 171 0 34 -45 85 -123 137 -25 17 -36 30 -32 41 3 8
9 34 12 58 5 40 8 44 47 54 170 44 181 68 121 269 -48 164 -74 182 -207 140
-34 -11 -67 -20 -73 -19 -5 0 -29 17 -53 38 l-42 39 40 74 c75 137 56 175
-115 237 -133 49 -174 57 -196 39z m-27 -552 c164 -59 225 -273 113 -403 -105
-123 -303 -125 -407 -4 -66 77 -79 184 -33 276 45 92 130 144 235 144 30 0 72
-6 92 -13z"/>
<path d="M6920 2838 c-26 -14 -57 -41 -75 -66 l-30 -44 -3 -409 c-2 -283 1
-422 9 -451 14 -53 72 -112 124 -127 27 -7 210 -11 554 -11 503 0 516 0 558
21 24 12 56 37 71 57 l27 35 3 439 c3 424 2 439 -18 478 -11 22 -39 52 -62 67
l-42 28 -535 3 -536 3 -45 -23z"/>
</g>
</svg>
